<?xml version="1.0" encoding="UTF-8" standalone="no"?>
<!DOCTYPE svg PUBLIC "-//W3C//DTD SVG 1.1//EN" "http://www.w3.org/Graphics/SVG/1.1/DTD/svg11.dtd">
<svg width="100%" height="100%" viewBox="0 0 64 64" version="1.1" xmlns="http://www.w3.org/2000/svg" xmlns:xlink="http://www.w3.org/1999/xlink" xml:space="preserve" xmlns:serif="http://www.serif.com/" style="fill-rule:evenodd;clip-rule:evenodd;stroke-linejoin:round;stroke-miterlimit:2;">
    <g transform="matrix(1,0,0,1.04034,-2.74002,3.03935)">
        <path d="M54.967,6.213C54.967,5.462 54.656,4.742 54.104,4.212C53.552,3.681 52.803,3.383 52.023,3.383C44.553,3.383 24.927,3.383 17.458,3.383C16.677,3.383 15.928,3.681 15.376,4.212C14.824,4.742 14.513,5.462 14.513,6.213C14.513,6.214 14.513,6.215 14.513,6.217C14.513,6.967 14.824,7.687 15.376,8.218C15.928,8.748 16.677,9.046 17.458,9.046C24.927,9.046 44.553,9.046 52.023,9.046C52.803,9.046 53.552,8.748 54.104,8.218C54.656,7.687 54.967,6.967 54.967,6.217C54.967,6.215 54.967,6.214 54.967,6.213Z" style="fill:rgb(235,235,235);"/>
    </g>
    <g transform="matrix(1,0,0,1.04034,-2.74002,46.9964)">
        <path d="M54.967,6.213C54.967,5.462 54.656,4.742 54.104,4.212C53.552,3.681 52.803,3.383 52.023,3.383C44.553,3.383 24.927,3.383 17.458,3.383C16.677,3.383 15.928,3.681 15.376,4.212C14.824,4.742 14.513,5.462 14.513,6.213C14.513,6.214 14.513,6.215 14.513,6.217C14.513,6.967 14.824,7.687 15.376,8.218C15.928,8.748 16.677,9.046 17.458,9.046C24.927,9.046 44.553,9.046 52.023,9.046C52.803,9.046 53.552,8.748 54.104,8.218C54.656,7.687 54.967,6.967 54.967,6.217C54.967,6.215 54.967,6.214 54.967,6.213Z" style="fill:rgb(235,235,235);"/>
    </g>
    <g transform="matrix(1,0,0,1,0,-0.494024)">
        <path d="M29.168,26.143C29.168,24.745 28.036,23.613 26.638,23.613C25.117,23.613 23.472,23.613 23.472,23.613L32,10.357L40.528,23.613L37.362,23.613C35.964,23.613 34.832,24.745 34.832,26.143C34.832,29.52 34.832,35.468 34.832,38.845C34.832,40.243 35.964,41.375 37.362,41.375C38.883,41.375 40.528,41.375 40.528,41.375L32,54.631L23.472,41.375L26.638,41.375C28.036,41.375 29.168,40.243 29.168,38.845C29.168,35.468 29.168,29.52 29.168,26.143Z" style="fill:rgb(235,235,235);"/>
    </g>
</svg>
