<?xml version="1.0" encoding="UTF-8" standalone="no"?>
<!DOCTYPE svg PUBLIC "-//W3C//DTD SVG 1.1//EN" "http://www.w3.org/Graphics/SVG/1.1/DTD/svg11.dtd">
<svg width="100%" height="100%" viewBox="0 0 128 128" version="1.1" xmlns="http://www.w3.org/2000/svg" xmlns:xlink="http://www.w3.org/1999/xlink" xml:space="preserve" xmlns:serif="http://www.serif.com/" style="fill-rule:evenodd;clip-rule:evenodd;stroke-linejoin:round;stroke-miterlimit:2;">
    <g transform="matrix(1.2698,0,0,1.2698,-17.902109,-22.981309)">
        <path d="M64.5,33C84.093,33 100,48.907 100,68.5C100,88.093 84.093,104 64.5,104C44.907,104 29,88.093 29,68.5C29,48.907 44.907,33 64.5,33ZM64.5,43.187C50.529,43.187 39.187,54.529 39.187,68.5C39.187,82.471 50.529,93.813 64.5,93.813C78.471,93.813 89.813,82.471 89.813,68.5C89.813,54.529 78.471,43.187 64.5,43.187ZM64.5,51.069C74.121,51.069 81.931,58.879 81.931,68.5C81.931,78.121 74.121,85.931 64.5,85.931C54.879,85.931 47.069,78.121 47.069,68.5C47.069,58.879 54.879,51.069 64.5,51.069ZM64.5,54.852C56.967,54.852 50.852,60.967 50.852,68.5C50.852,76.033 56.967,82.148 64.5,82.148C72.033,82.148 78.148,76.033 78.148,68.5C78.148,60.967 72.033,54.852 64.5,54.852Z" style="fill:rgb(89,194,255);"/>
    </g>
    <g transform="matrix(0.525453,0,0,0.525453,30.613243,32.755992)">
        <circle cx="63.539" cy="59.461" r="40.539" style="fill:rgb(89,194,255);"/>
    </g>
</svg>
