<?xml version="1.0" encoding="UTF-8" standalone="no"?>
<!DOCTYPE svg PUBLIC "-//W3C//DTD SVG 1.1//EN" "http://www.w3.org/Graphics/SVG/1.1/DTD/svg11.dtd">
<svg width="100%" height="100%" viewBox="0 0 64 64" version="1.1" xmlns="http://www.w3.org/2000/svg" xmlns:xlink="http://www.w3.org/1999/xlink" xml:space="preserve" xmlns:serif="http://www.serif.com/" style="fill-rule:evenodd;clip-rule:evenodd;stroke-linejoin:round;stroke-miterlimit:2;">
    <g transform="matrix(0.634789,0,0,0.631672,11.6868,11.7865)">
        <path d="M44.154,25.258C42.718,25.258 41.342,24.688 40.327,23.673C39.312,22.658 38.742,21.282 38.742,19.846L38.742,-4.72C38.742,-6.548 37.26,-8.03 35.431,-8.03L28.569,-8.03C26.74,-8.03 25.258,-6.548 25.258,-4.72L25.258,19.846C25.258,21.282 24.688,22.658 23.673,23.673C22.658,24.688 21.282,25.258 19.846,25.258L-1.914,25.258C-2.792,25.258 -3.634,25.607 -4.255,26.228C-4.876,26.848 -5.225,27.691 -5.225,28.569L-5.225,35.431C-5.225,36.309 -4.876,37.152 -4.255,37.772C-3.634,38.393 -2.792,38.742 -1.914,38.742L19.846,38.742C21.282,38.742 22.658,39.312 23.673,40.327C24.688,41.342 25.258,42.718 25.258,44.154L25.258,68.72C25.258,70.548 26.74,72.03 28.569,72.03L35.431,72.03C37.26,72.03 38.742,70.548 38.742,68.72L38.742,44.154C38.742,42.718 39.312,41.342 40.327,40.327C41.342,39.312 42.718,38.742 44.154,38.742L65.914,38.742C66.792,38.742 67.634,38.393 68.255,37.772C68.876,37.152 69.225,36.309 69.225,35.431L69.225,28.569C69.225,27.691 68.876,26.848 68.255,26.228C67.634,25.607 66.792,25.258 65.914,25.258L44.154,25.258Z" style="fill:white;fill-opacity:0.67;"/>
    </g>
</svg>
