<?xml version="1.0" encoding="UTF-8" standalone="no"?>
<!DOCTYPE svg PUBLIC "-//W3C//DTD SVG 1.1//EN" "http://www.w3.org/Graphics/SVG/1.1/DTD/svg11.dtd">
<svg width="100%" height="100%" viewBox="0 0 128 128" version="1.1" xmlns="http://www.w3.org/2000/svg" xmlns:xlink="http://www.w3.org/1999/xlink" xml:space="preserve" xmlns:serif="http://www.serif.com/" style="fill-rule:evenodd;clip-rule:evenodd;stroke-linejoin:round;stroke-miterlimit:2;">
    <g>
        <g transform="matrix(0.9375,0,0,0.731234,4,14.1492)">
            <path d="M111.049,-0.204C115.545,-0.204 119.856,2.086 123.035,6.161C126.214,10.237 128,15.765 128,21.528L128,107.98C128,119.983 120.411,129.712 111.049,129.713L16.951,129.713C12.455,129.713 8.144,127.423 4.965,123.348C1.786,119.272 -0,113.744 -0,107.981L-0,21.529C0,9.526 7.589,-0.204 16.951,-0.204L111.049,-0.204ZM112,24.334C112,20.6 109.64,17.573 106.728,17.572L20.209,17.538C18.81,17.538 17.468,18.25 16.479,19.518C15.489,20.786 14.933,22.506 14.933,24.3L14.933,105.138C14.933,108.872 17.294,111.898 20.206,111.9L106.724,111.933C108.123,111.934 109.465,111.222 110.455,109.953C111.444,108.685 112,106.965 112,105.172L112,24.334Z" style="fill:rgb(89,194,255);"/>
        </g>
        <g transform="matrix(1,0,0,1,-4,0)">
            <path d="M52.509,76.509C52.183,76.183 51.741,76 51.28,76C49.391,76 44.208,76 40.903,76C39.3,76 38,74.7 38,73.097C38,68.094 38,57.906 38,52.903C38,51.3 39.3,50 40.903,50C43.741,50 47.861,50 49.454,50C49.881,50 50.294,49.842 50.612,49.557C52.679,47.709 60.718,40.516 65.105,36.591C65.615,36.134 66.347,36.02 66.972,36.299C67.597,36.579 68,37.2 68,37.885C68,48.339 68,77.003 68,87.806C68,88.509 67.577,89.142 66.928,89.411C66.279,89.68 65.531,89.531 65.035,89.035C61.091,85.091 54.396,78.396 52.509,76.509Z" style="fill:rgb(89,194,255);"/>
        </g>
        <g transform="matrix(1.062942,0,0,1.062942,-5.225823,-3.965324)">
            <path d="M72.842,50.725C71.889,49.533 72.083,47.794 73.275,46.842C74.467,45.889 76.206,46.083 77.158,47.275C81.349,52.519 83.251,57.789 83.188,63.033C83.126,68.233 81.115,73.459 77.209,78.659C76.292,79.879 74.561,80.125 73.341,79.209C72.121,78.292 71.875,76.561 72.791,75.341C75.896,71.207 77.614,67.1 77.664,62.967C77.712,58.877 76.11,54.814 72.842,50.725Z" style="fill:rgb(89,194,255);"/>
        </g>
        <g transform="matrix(1.78892,0,0,1.78892,-48.592355,-49.70199)">
            <path d="M73.718,50.025C73.152,49.316 73.267,48.284 73.975,47.718C74.684,47.152 75.716,47.267 76.282,47.975C80.285,52.985 82.127,58.01 82.067,63.02C82.008,68.003 80.056,73.002 76.312,77.986C75.768,78.711 74.739,78.857 74.014,78.312C73.289,77.768 73.143,76.739 73.688,76.014C76.955,71.664 78.733,67.33 78.785,62.98C78.836,58.657 77.173,54.348 73.718,50.025Z" style="fill:rgb(89,194,255);"/>
        </g>
    </g>
</svg>
