<?xml version="1.0" encoding="UTF-8" standalone="no"?>
<!DOCTYPE svg PUBLIC "-//W3C//DTD SVG 1.1//EN" "http://www.w3.org/Graphics/SVG/1.1/DTD/svg11.dtd">
<svg width="100%" height="100%" viewBox="0 0 128 128" version="1.1" xmlns="http://www.w3.org/2000/svg" xmlns:xlink="http://www.w3.org/1999/xlink" xml:space="preserve" xmlns:serif="http://www.serif.com/" style="fill-rule:evenodd;clip-rule:evenodd;stroke-linejoin:round;stroke-miterlimit:2;">
    <g transform="matrix(1.773778,0,0,1.773778,-50.408695,-57.503808)">
        <path d="M64.5,33C84.093,33 100,48.907 100,68.5C100,88.093 84.093,104 64.5,104C44.907,104 29,88.093 29,68.5C29,48.907 44.907,33 64.5,33ZM64.5,43.187C50.529,43.187 39.187,54.529 39.187,68.5C39.187,82.471 50.529,93.813 64.5,93.813C78.471,93.813 89.813,82.471 89.813,68.5C89.813,54.529 78.471,43.187 64.5,43.187ZM64.5,51.069C74.121,51.069 81.931,58.879 81.931,68.5C81.931,78.121 74.121,85.931 64.5,85.931C54.879,85.931 47.069,78.121 47.069,68.5C47.069,58.879 54.879,51.069 64.5,51.069ZM64.5,54.852C56.967,54.852 50.852,60.967 50.852,68.5C50.852,76.033 56.967,82.148 64.5,82.148C72.033,82.148 78.148,76.033 78.148,68.5C78.148,60.967 72.033,54.852 64.5,54.852Z" style="fill:rgb(89,194,255);"/>
    </g>
    <g transform="matrix(1.568023,0,0,1.568023,-68.401197,42.519767)">
        <path d="M93.5,40.735C93.5,40.01 93.212,39.314 92.699,38.801C92.186,38.288 91.49,38 90.765,38L82.735,38C81.224,38 80,36.776 80,35.265C80,32.559 80,28.441 80,25.735C80,24.224 81.224,23 82.735,23C85.075,23 88.425,23 90.765,23C91.49,23 92.186,22.712 92.699,22.199C93.212,21.686 93.5,20.99 93.5,20.265L93.5,12.235C93.5,10.724 94.724,9.5 96.235,9.5C98.941,9.5 103.059,9.5 105.765,9.5C107.276,9.5 108.5,10.724 108.5,12.235C108.5,14.575 108.5,17.925 108.5,20.265C108.5,20.99 108.788,21.686 109.301,22.199C109.814,22.712 110.51,23 111.235,23L119.265,23C120.776,23 122,24.224 122,25.735C122,28.441 122,32.559 122,35.265C122,36.776 120.776,38 119.265,38C116.925,38 113.575,38 111.235,38C110.51,38 109.814,38.288 109.301,38.801C108.788,39.314 108.5,40.01 108.5,40.735L108.5,48.765C108.5,50.276 107.276,51.5 105.765,51.5C103.059,51.5 98.941,51.5 96.235,51.5C94.724,51.5 93.5,50.276 93.5,48.765C93.5,46.425 93.5,43.075 93.5,40.735Z" style="fill:white;"/>
    </g>
</svg>
