<?xml version="1.0" encoding="UTF-8" standalone="no"?>
<!DOCTYPE svg PUBLIC "-//W3C//DTD SVG 1.1//EN" "http://www.w3.org/Graphics/SVG/1.1/DTD/svg11.dtd">
<svg width="100%" height="100%" viewBox="0 0 128 128" version="1.1" xmlns="http://www.w3.org/2000/svg" xmlns:xlink="http://www.w3.org/1999/xlink" xml:space="preserve" xmlns:serif="http://www.serif.com/" style="fill-rule:evenodd;clip-rule:evenodd;stroke-linecap:round;stroke-linejoin:round;stroke-miterlimit:1.5;">
    <g transform="matrix(0.923871,0,0,0.913372,4.87223,5.54422)">
        <path d="M110.007,0C119.944,0 128,8.149 128,18.2L128,109.8C128,119.851 119.944,128 110.007,128L17.993,128C8.056,128 -0,119.851 -0,109.8L0,18.2C-0,8.149 8.056,0 17.993,0L110.007,0Z" style="fill:none;stroke:rgb(89,194,255);stroke-width:8.71px;"/>
    </g>
    <g transform="matrix(1,0,0,1,-2.2706,0)">
        <g transform="matrix(0.876832,0,0,0.876832,4.02534,6.6477)">
            <path d="M39.246,23.977C41.397,22.638 44.023,22.296 46.446,23.04C48.869,23.783 50.851,25.539 51.881,27.854C51.954,27.823 51.954,27.824 51.954,27.824C53.649,31.635 52.241,36.111 48.67,38.265C39.852,43.443 33.968,53.04 33.968,64C33.968,79.551 45.813,92.357 60.966,93.88L60.966,110.964C36.406,109.4 16.94,88.955 16.94,64C16.94,47.106 25.861,32.279 39.246,23.977Z" style="fill:rgb(89,194,255);"/>
        </g>
        <g transform="matrix(0.876832,0,0,0.876832,12.9696,13.1272)">
            <path d="M66.337,100.319C67.033,99.728 67.447,98.872 67.478,97.959C67.51,97.047 67.155,96.164 66.501,95.527C63.117,92.228 57.053,86.316 52.602,81.977C51.669,81.067 50.281,80.805 49.08,81.311C47.879,81.818 47.098,82.995 47.098,84.298C47.098,91.624 47.098,102.559 47.098,109.649C47.098,110.913 47.831,112.061 48.978,112.591C50.124,113.122 51.474,112.938 52.437,112.12C56.832,108.389 62.88,103.254 66.337,100.319Z" style="fill:rgb(89,194,255);"/>
        </g>
    </g>
    <g transform="matrix(-1,-1.22465e-16,1.22465e-16,-1,134.125,127.101)">
        <g transform="matrix(0.876832,0,0,0.876832,4.02534,6.6477)">
            <path d="M39.246,23.977C41.397,22.638 44.023,22.296 46.446,23.04C48.869,23.783 50.851,25.539 51.881,27.854C51.954,27.823 51.954,27.824 51.954,27.824C53.649,31.635 52.241,36.111 48.67,38.265C39.852,43.443 33.968,53.04 33.968,64C33.968,79.551 45.813,92.357 60.966,93.88L60.966,110.964C36.406,109.4 16.94,88.955 16.94,64C16.94,47.106 25.861,32.279 39.246,23.977Z" style="fill:rgb(89,194,255);"/>
        </g>
        <g transform="matrix(0.876832,0,0,0.876832,12.9696,13.1272)">
            <path d="M66.337,100.319C67.033,99.728 67.447,98.872 67.478,97.959C67.51,97.047 67.155,96.164 66.501,95.527C63.117,92.228 57.053,86.316 52.602,81.977C51.669,81.067 50.281,80.805 49.08,81.311C47.879,81.818 47.098,82.995 47.098,84.298C47.098,91.624 47.098,102.559 47.098,109.649C47.098,110.913 47.831,112.061 48.978,112.591C50.124,113.122 51.474,112.938 52.437,112.12C56.832,108.389 62.88,103.254 66.337,100.319Z" style="fill:rgb(89,194,255);"/>
        </g>
    </g>
    <g transform="matrix(0.738961,0,0,0.674719,17.7001,21.4607)">
        <path d="M92.979,63.047C92.979,57.343 90.91,51.873 87.228,47.84C83.546,43.807 78.551,41.542 73.344,41.542C68.717,41.542 63.703,41.542 59.077,41.542C53.869,41.542 48.875,43.807 45.192,47.84C41.51,51.873 39.441,57.343 39.441,63.047C39.441,63.047 39.441,63.048 39.441,63.048C39.441,68.752 41.51,74.222 45.192,78.255C48.875,82.288 53.869,84.553 59.077,84.553C63.703,84.553 68.717,84.553 73.344,84.553C78.551,84.553 83.546,82.288 87.228,78.255C90.91,74.222 92.979,68.752 92.979,63.048C92.979,63.048 92.979,63.047 92.979,63.047L92.979,63.047ZM87.566,63.047L87.566,63.048C87.566,67.179 86.068,71.141 83.4,74.063C80.733,76.984 77.116,78.625 73.344,78.625C68.717,78.625 63.703,78.625 59.077,78.625C55.305,78.625 51.687,76.984 49.02,74.063C46.353,71.141 44.854,67.179 44.854,63.048L44.854,63.047C44.854,58.916 46.353,54.954 49.02,52.032C51.687,49.111 55.305,47.47 59.077,47.47C63.703,47.47 68.717,47.47 73.344,47.47C77.116,47.47 80.733,49.111 83.4,52.032C86.068,54.954 87.566,58.916 87.566,63.047Z" style="fill:rgb(89,194,255);"/>
    </g>
</svg>
