<?xml version="1.0" encoding="UTF-8" standalone="no"?>
<!DOCTYPE svg PUBLIC "-//W3C//DTD SVG 1.1//EN" "http://www.w3.org/Graphics/SVG/1.1/DTD/svg11.dtd">
<svg width="100%" height="100%" viewBox="0 0 128 128" version="1.1" xmlns="http://www.w3.org/2000/svg" xmlns:xlink="http://www.w3.org/1999/xlink" xml:space="preserve" xmlns:serif="http://www.serif.com/" style="fill-rule:evenodd;clip-rule:evenodd;stroke-linejoin:round;stroke-miterlimit:2;">
    <g>
        <g transform="matrix(0.116667,0,0,1,3.533333,0)">
            <path d="M4,14L124,14L124,28L4,28L4,14Z" style="fill:rgb(89,194,255);"/>
        </g>
        <g transform="matrix(0.116667,0,0,1,3.533333,80.999695)">
            <path d="M4,14L124,14L124,28L4,28L4,14Z" style="fill:rgb(89,194,255);"/>
        </g>
        <g transform="matrix(0.116667,0,0,1,109.533333,0)">
            <path d="M4,14L124,14L124,28L4,28L4,14Z" style="fill:rgb(89,194,255);"/>
        </g>
        <g transform="matrix(0.116667,0,0,1,109.533333,80.999695)">
            <path d="M4,14L124,14L124,28L4,28L4,14Z" style="fill:rgb(89,194,255);"/>
        </g>
        <g transform="matrix(0.25,0,0,1,27,0)">
            <path d="M4,14L124,14L124,28L4,28L4,14Z" style="fill:rgb(89,194,255);"/>
        </g>
        <g transform="matrix(0.25,0,0,1,27,80.999695)">
            <path d="M4,14L124,14L124,28L4,28L4,14Z" style="fill:rgb(89,194,255);"/>
        </g>
        <g transform="matrix(0.25,0,0,1,69,0)">
            <path d="M4,14L124,14L124,28L4,28L4,14Z" style="fill:rgb(89,194,255);"/>
        </g>
        <g transform="matrix(0.25,0,0,1,69,80.999695)">
            <path d="M4,14L124,14L124,28L4,28L4,14Z" style="fill:rgb(89,194,255);"/>
        </g>
        <rect x="4" y="68" width="14" height="19.058" style="fill:rgb(89,194,255);"/>
        <g transform="matrix(1,0,0,1,106,0)">
            <rect x="4" y="68" width="14" height="19.058" style="fill:rgb(89,194,255);"/>
        </g>
        <rect x="4" y="37.93" width="14" height="17.07" style="fill:rgb(89,194,255);"/>
        <g transform="matrix(1,0,0,1,106,0)">
            <rect x="4" y="37.93" width="14" height="17.07" style="fill:rgb(89,194,255);"/>
        </g>
        <g transform="matrix(1.036121,0,0,1.036121,-4.902036,-3.257553)">
            <path d="M29,90L104,90L79,35L61,60.5L45,52L29,90Z" style="fill:rgb(89,194,255);"/>
        </g>
    </g>
</svg>
