<?xml version="1.0" encoding="UTF-8" standalone="no"?>
<!DOCTYPE svg PUBLIC "-//W3C//DTD SVG 1.1//EN" "http://www.w3.org/Graphics/SVG/1.1/DTD/svg11.dtd">
<svg width="100%" height="100%" viewBox="0 0 128 128" version="1.1" xmlns="http://www.w3.org/2000/svg" xmlns:xlink="http://www.w3.org/1999/xlink" xml:space="preserve" xmlns:serif="http://www.serif.com/" style="fill-rule:evenodd;clip-rule:evenodd;stroke-linejoin:round;stroke-miterlimit:2;">
    <g>
        <g transform="matrix(0.9375,0,0,0.731234,4,14.1492)">
            <path d="M111.049,-0.204C115.545,-0.204 119.856,2.086 123.035,6.161C126.214,10.237 128,15.765 128,21.528L128,107.98C128,119.983 120.411,129.712 111.049,129.713L16.951,129.713C12.455,129.713 8.144,127.423 4.965,123.348C1.786,119.272 -0,113.744 -0,107.981L-0,21.529C0,9.526 7.589,-0.204 16.951,-0.204L111.049,-0.204ZM112,24.334C112,20.6 109.64,17.573 106.728,17.572L20.209,17.538C18.81,17.538 17.468,18.25 16.479,19.518C15.489,20.786 14.933,22.506 14.933,24.3L14.933,105.138C14.933,108.872 17.294,111.898 20.206,111.9L106.724,111.933C108.123,111.934 109.465,111.222 110.455,109.953C111.444,108.685 112,106.965 112,105.172L112,24.334Z" style="fill:rgb(89,194,255);"/>
        </g>
        <g transform="matrix(0.507937,0,0,0.5,9.238095,14.499847)">
            <path d="M76.807,37C87.407,37 96,45.729 96,56.497L96,73.444C96,80.931 90.026,87 82.656,87L49.691,87C45.264,87 41.019,85.214 37.889,82.034C34.759,78.854 33,74.541 33,70.044L33,70.04C33,61.277 36.427,52.873 42.526,46.677C48.625,40.481 56.898,37 65.524,37L76.807,37Z" style="fill:rgb(89,194,255);"/>
        </g>
        <g transform="matrix(0.507937,0,0,0.5,9.238095,46.499847)">
            <path d="M82.656,37C90.026,37 96,43.069 96,50.556L96,67.503C96,78.271 87.407,87 76.807,87L65.524,87C56.898,87 48.625,83.519 42.526,77.323C36.427,71.127 33,62.723 33,53.96L33,53.956C33,49.459 34.759,45.146 37.889,41.966C41.019,38.786 45.264,37 49.691,37L82.656,37Z" style="fill:rgb(89,194,255);"/>
        </g>
        <g transform="matrix(0.507937,0,0,0.5,53.238095,14.499847)">
            <path d="M63.476,37C72.102,37 80.375,40.481 86.474,46.677C92.573,52.873 96,61.277 96,70.04L96,70.044C96,74.541 94.241,78.854 91.111,82.034C87.981,85.214 83.736,87 79.309,87L46.344,87C38.974,87 33,80.931 33,73.444L33,56.497C33,45.729 41.593,37 52.193,37L63.476,37Z" style="fill:rgb(89,194,255);"/>
        </g>
        <g transform="matrix(0.507937,0,0,0.5,53.238095,46.499847)">
            <path d="M79.309,37C83.736,37 87.981,38.786 91.111,41.966C94.241,45.146 96,49.459 96,53.956L96,53.96C96,62.723 92.573,71.127 86.474,77.323C80.375,83.519 72.102,87 63.476,87L52.193,87C41.593,87 33,78.271 33,67.503L33,50.556C33,43.069 38.974,37 46.344,37L79.309,37Z" style="fill:rgb(89,194,255);"/>
        </g>
    </g>
</svg>
