<?xml version="1.0" encoding="UTF-8" standalone="no"?>
<!DOCTYPE svg PUBLIC "-//W3C//DTD SVG 1.1//EN" "http://www.w3.org/Graphics/SVG/1.1/DTD/svg11.dtd">
<svg width="100%" height="100%" viewBox="0 0 128 128" version="1.1" xmlns="http://www.w3.org/2000/svg" xmlns:xlink="http://www.w3.org/1999/xlink" xml:space="preserve" xmlns:serif="http://www.serif.com/" style="fill-rule:evenodd;clip-rule:evenodd;stroke-linejoin:round;stroke-miterlimit:2;">
    <g>
        <g transform="matrix(0.9375,0,0,0.731234,4,14.1492)">
            <path d="M111.049,-0.204C115.545,-0.204 119.856,2.086 123.035,6.161C126.214,10.237 128,15.765 128,21.528L128,107.98C128,119.983 120.411,129.712 111.049,129.713L16.951,129.713C12.455,129.713 8.144,127.423 4.965,123.348C1.786,119.272 -0,113.744 -0,107.981L-0,21.529C0,9.526 7.589,-0.204 16.951,-0.204L111.049,-0.204ZM112,24.334C112,20.6 109.64,17.573 106.728,17.572L20.209,17.538C18.81,17.538 17.468,18.25 16.479,19.518C15.489,20.786 14.933,22.506 14.933,24.3L14.933,105.138C14.933,108.872 17.294,111.898 20.206,111.9L106.724,111.933C108.123,111.934 109.465,111.222 110.455,109.953C111.444,108.685 112,106.965 112,105.172L112,24.334Z" style="fill:rgb(89,194,255);"/>
        </g>
        <g transform="matrix(0.288177,0,0,1.18,45.41261,-11.66)">
            <path d="M76.525,37C87.281,37 96,39.129 96,41.756C96,51.302 96,72.698 96,82.244C96,84.871 87.281,87 76.525,87C68.879,87 60.121,87 52.475,87C41.719,87 33,84.871 33,82.244C33,72.698 33,51.302 33,41.756C33,39.129 41.719,37 52.475,37C60.121,37 68.879,37 76.525,37Z" style="fill:rgb(89,194,255);"/>
        </g>
        <g transform="matrix(0.984127,0,0,0.3,0.52381,42.9)">
            <path d="M90.297,37C91.81,37 93.26,38.971 94.33,42.479C95.399,45.988 96,50.746 96,55.708L96,68.292C96,73.254 95.399,78.012 94.33,81.521C93.26,85.029 91.81,87 90.297,87L38.703,87C37.19,87 35.74,85.029 34.67,81.521C33.601,78.012 33,73.254 33,68.292L33,55.708C33,50.746 33.601,45.988 34.67,42.479C35.74,38.971 37.19,37 38.703,37L90.297,37Z" style="fill:rgb(89,194,255);"/>
        </g>
    </g>
</svg>
