<?xml version="1.0" encoding="UTF-8" standalone="no"?>
<!DOCTYPE svg PUBLIC "-//W3C//DTD SVG 1.1//EN" "http://www.w3.org/Graphics/SVG/1.1/DTD/svg11.dtd">
<svg width="100%" height="100%" viewBox="0 0 128 128" version="1.1" xmlns="http://www.w3.org/2000/svg" xmlns:xlink="http://www.w3.org/1999/xlink" xml:space="preserve" xmlns:serif="http://www.serif.com/" style="fill-rule:evenodd;clip-rule:evenodd;stroke-linecap:round;stroke-miterlimit:1.5;">
    <g transform="matrix(0.763627,0,0,0.646382,15.127898,19.131579)">
        <path d="M114.549,-0C118.116,-0 121.538,1.674 124.06,4.654C126.583,7.634 128,11.676 128,15.891C128,40.49 128,87.51 128,112.109C128,116.324 126.583,120.366 124.06,123.346C121.538,126.326 118.116,128 114.549,128C89.962,128 38.038,128 13.451,128C9.884,128 6.462,126.326 3.94,123.346C1.417,120.366 -0,116.324 -0,112.109C0,87.51 0,40.49 0,15.891C-0,11.676 1.417,7.634 3.94,4.654C6.462,1.674 9.884,-0 13.451,0C38.038,0 89.962,0 114.549,-0Z" style="fill:none;stroke:rgb(89,194,255);stroke-width:16.96px;"/>
    </g>
    <g transform="matrix(0.39788,0,0,0.298508,38.535655,40.395504)">
        <path d="M115.784,-0C119.024,-0 122.131,1.715 124.422,4.769C126.713,7.822 128,11.964 128,16.282C128,40.854 128,87.146 128,111.718C128,116.036 126.713,120.178 124.422,123.231C122.131,126.285 119.024,128 115.784,128C91.34,128 36.66,128 12.216,128C8.976,128 5.869,126.285 3.578,123.231C1.287,120.178 0,116.036 -0,111.718C0,87.146 0,40.854 0,16.282C0,11.964 1.287,7.822 3.578,4.769C5.869,1.715 8.976,-0 12.216,0C36.66,0 91.34,0 115.784,-0Z" style="fill:none;stroke:rgb(89,194,255);stroke-width:25.59px;"/>
    </g>
</svg>
